# File created by Blade
# Date/Time:  Thu Sep 25 19:43:58 2014
# Frame Rate: 120.000 fps
#------------------------------------------------------
:FULLY-SPECIFIED
:DEGREES
699
root 3.367080 13.247703 -9.527477 9.966135 15.916989 -23.220514
Spine 0.940076 2.476942 -37.225849
Head -26.110173 -19.719826 -30.962758
LeftShoulder -2.325602 8.703345 19.324748
LeftArm 15.446848 -6.550681 -57.706510
LeftForeArm 38.758881 -0.000000 15.619050
LeftHand -31.706933 -0.000000 111.410274
LeftHandThumb1 -26.253704 0.000000 33.147579
RightShoulder -24.064672 35.754064 -65.076173
RightArm 74.107245 33.154031 49.302526
RightForeArm 25.998785 0.000000 22.922131
RightHand 2.693095 -0.000000 -3.696239
RightHandThumb1 -24.326973 -0.000000 -32.862282
LeftUpLeg -111.841036 45.556711 22.656896
LeftLeg 128.098951 -0.000000 -0.000000
LeftFoot -29.045341 -17.608306 -13.412174
LeftToeBase 2.646305 -0.000000 -0.000000
RightUpLeg -3.513797 -22.788374 -39.207135
RightLeg 8.177614 -0.000000 -0.000000
RightFoot 8.363816 -19.121532 -2.791280
RightToeBase 7.809936 -0.000000 -0.000000
700
root 3.367562 13.242773 -9.536610 9.957084 15.906066 -23.214843
Spine 0.985586 2.512029 -37.206263
Head -25.898426 -19.442894 -30.834812
LeftShoulder -2.312461 8.707130 19.332511
LeftArm 15.489745 -6.480454 -57.721857
LeftForeArm 38.515445 -0.000000 15.619366
LeftHand -31.585925 0.000000 111.373209
LeftHandThumb1 -26.253704 0.000000 33.147579
RightShoulder -23.969599 35.620106 -64.919433
RightArm 74.203358 33.259479 49.278146
RightForeArm 25.961383 -0.000000 22.907958
RightHand 2.832582 -0.000000 -3.787867
RightHandThumb1 -24.326973 -0.000000 -32.862282
LeftUpLeg -111.878075 45.555727 22.621975
LeftLeg 128.101862 -0.000000 -0.000000
LeftFoot -29.051342 -17.594661 -13.375722
LeftToeBase 2.649070 -0.000000 -0.000000
RightUpLeg -3.526291 -22.783842 -39.221801
RightLeg 8.181385 -0.000000 -0.000000
RightFoot 8.357586 -19.114293 -2.813806
RightToeBase 7.744521 -0.000000 -0.000000
701
root 3.367234 13.239768 -9.546007 9.956495 15.889752 -23.209362
Spine 1.033528 2.550080 -37.210366
Head -25.742723 -19.118465 -30.641031
LeftShoulder -2.306557 8.701279 19.369206
LeftArm 15.527663 -6.467556 -57.761078
LeftForeArm 38.480004 -0.000000 15.637774
LeftHand -31.550535 -0.000000 111.409082
LeftHandThumb1 -26.253704 0.000000 33.147579
RightShoulder -23.891390 35.614089 -64.859918
RightArm 74.083782 33.326478 49.158893
RightForeArm 26.030201 -0.000000 22.912971
RightHand 2.846202 -0.000000 -3.943051
RightHandThumb1 -24.326973 -0.000000 -32.862282
LeftUpLeg -111.902900 45.565058 22.592607
LeftLeg 128.109847 -0.000000 -0.000000
LeftFoot -29.027108 -17.651342 -13.445329
LeftToeBase 2.649203 -0.000000 -0.000000
RightUpLeg -3.556420 -22.751097 -39.226988
RightLeg 8.195792 -0.000000 -0.000000
RightFoot 8.347153 -19.111389 -2.896173
RightToeBase 7.658493 -0.000000 -0.000000
702
root 3.369195 13.236126 -9.559104 9.972279 15.914131 -23.177055
Spine 1.107407 2.525410 -37.212772
Head -25.587917 -18.769896 -30.506344
LeftShoulder -2.309817 8.703853 19.378052
LeftArm 15.581004 -6.420927 -57.772118
LeftForeArm 38.401469 -0.000000 15.609577
LeftHand -31.552577 -0.000000 111.461043
LeftHandThumb1 -26.253704 0.000000 33.147579
RightShoulder -23.822361 35.550405 -64.786665
RightArm 74.093030 33.402277 49.167204
RightForeArm 26.045502 -0.000000 22.943011
RightHand 2.759570 0.000000 -4.077061
RightHandThumb1 -24.326973 -0.000000 -32.862282
LeftUpLeg -112.011273 45.511222 22.473977
LeftLeg 128.094015 -0.000000 -0.000000
LeftFoot -29.038609 -17.574524 -13.380503
LeftToeBase 2.736608 -0.000000 -0.000000
RightUpLeg -3.562467 -22.780166 -39.263848
RightLeg 8.205876 -0.000000 -0.000000
RightFoot 8.322022 -19.076377 -2.913944
RightToeBase 7.864918 -0.000000 -0.000000
703
root 3.369515 13.233275 -9.570993 9.979538 15.932787 -23.161149
Spine 1.171369 2.571078 -37.207261
Head -25.366526 -18.461129 -30.394989
LeftShoulder -2.248859 8.706610 19.410153
LeftArm 15.645091 -6.378529 -57.791929
LeftForeArm 38.330168 -0.000000 15.588963
LeftHand -31.583115 -0.000000 111.502559
LeftHandThumb1 -26.253704 0.000000 33.147579
RightShoulder -23.768155 35.472800 -64.722836
RightArm 74.042994 33.448261 49.072549
RightForeArm 26.126537 -0.000000 22.898465
RightHand 2.697488 -0.000000 -4.091224
RightHandThumb1 -24.326973 -0.000000 -32.862282
LeftUpLeg -112.104841 45.478381 22.374057
LeftLeg 128.083912 -0.000000 -0.000000
LeftFoot -29.045625 -17.533574 -13.346467
LeftToeBase 2.808086 -0.000000 -0.000000
RightUpLeg -3.566071 -22.807861 -39.282480
RightLeg 8.200028 -0.000000 -0.000000
RightFoot 8.329646 -19.057839 -2.963585
RightToeBase 7.766482 -0.000000 -0.000000
704
root 3.370940 13.230524 -9.583730 10.007162 15.953523 -23.135083
Spine 1.221819 2.605317 -37.213850
Head -25.168197 -18.146989 -30.263687
LeftShoulder -2.200164 8.709355 19.439933
LeftArm 15.719533 -6.345329 -57.819222
LeftForeArm 38.271663 0.000000 15.563635
LeftHand -31.603966 -0.000000 111.556402
LeftHandThumb1 -26.253704 0.000000 33.147579
RightShoulder -23.739654 35.431187 -64.682870
RightArm 73.973275 33.444322 49.028350
RightForeArm 26.133632 -0.000000 22.889082
RightHand 2.732596 0.000000 -4.050782
RightHandThumb1 -24.326973 -0.000000 -32.862282
LeftUpLeg -112.222535 45.450013 22.250739
LeftLeg 128.074176 -0.000000 -0.000000
LeftFoot -29.012797 -17.520739 -13.338043
LeftToeBase 2.756267 -0.000000 -0.000000
RightUpLeg -3.584165 -22.832282 -39.308616
RightLeg 8.201553 -0.000000 -0.000000
RightFoot 8.321536 -19.045342 -3.019881
RightToeBase 7.722279 -0.000000 -0.000000
